<svg width="128" height="128" version="1.1" viewBox="0 0 128 128" xmlns="http://www.w3.org/2000/svg"><g transform="translate(62.764 -242.32)" stroke-linecap="round" stroke-linejoin="round" stroke-width="4.6156"><path d="m-34.912 242.32c-11.852 0-21.574 9.7226-21.574 21.574v41.171c0 11.852 9.7225 21.572 21.574 21.572h41.171c11.852 0 21.572-9.72 21.572-21.572v-2.0584h-11.592v2.0584c0 5.6251-4.3547 9.9702-9.9797 9.9702h-41.171c-5.625 0-9.9702-4.3451-9.9702-9.9702v-41.171c0-5.625 4.3451-9.9725 9.9702-9.9725h41.171c5.625 0 9.9797 4.3475 9.9797 9.9725v0.25542c1.6632-1.0196 3.5757-1.5602 5.5265-1.5623 2.1698 8.2e-4 4.287 0.66771 6.0656 1.9105v-0.60342c0-11.852-9.7201-21.574-21.572-21.574zm56.677 22.19a8.6735 8.6735 0 0 0-8.675 8.675 8.6735 8.6735 0 0 0 8.675 8.6726 8.6735 8.6735 0 0 0 8.6726-8.6726 8.6735 8.6735 0 0 0-8.6726-8.675z" color="#000000" fill="#00b29d" style="-inkscape-stroke:none;paint-order:fill markers stroke"/><path d="m37.385 370.32c11.852 0 21.574-9.7226 21.574-21.574v-41.171c0-11.852-9.7225-21.572-21.574-21.572h-41.171c-11.852 0-21.572 9.7201-21.572 21.572v2.0584h11.592v-2.0584c0-5.6251 4.3547-9.9702 9.9797-9.9702h41.171c5.625 0 9.9701 4.345 9.9701 9.9702v41.171c0 5.625-4.3451 9.9725-9.9701 9.9725h-41.171c-5.625 0-9.9797-4.3474-9.9797-9.9725v-0.25542c-1.6632 1.0196-3.5757 1.5602-5.5265 1.5623-2.1698-8.2e-4 -4.287-0.66771-6.0656-1.9105v0.60347c0 11.852 9.7201 21.574 21.572 21.574zm-56.677-22.19a8.6735 8.6735 0 0 0 8.675-8.675 8.6735 8.6735 0 0 0-8.675-8.6726 8.6735 8.6735 0 0 0-8.6726 8.6726 8.6735 8.6735 0 0 0 8.6726 8.675z" color="#000000" fill="#ffb339" style="-inkscape-stroke:none;paint-order:fill markers stroke"/></g></svg>
