<svg width="256" height="256" version="1.1" viewBox="0 0 256 256" xmlns="http://www.w3.org/2000/svg"><rect width="256" height="256" fill="#00b29d" stop-color="#000000" stroke-linecap="round" stroke-linejoin="round" stroke-width="9.5" style="paint-order:fill markers stroke"/><path d="m125.75 26.324c-7.8097 0.006783-10.505 0.22284-14.521 1.1641-13.996 3.2799-24.193 9.169-29.869 17.252-3.0191 4.299-4.3981 7.5778-6.4043 15.232-1.7562 6.7009-2.2933 19.97-1.1367 28.066l0.76172 5.3262-1.5449 0.53711c-0.84879 0.29589-1.7546 1.1056-2.0137 1.7988-0.72381 1.9369 0.60609 23.658 1.5156 24.754 0.45195 0.54456 1.5736 0.89258 2.8828 0.89258 1.2475 0 2.22 0.28466 2.3301 0.68359 0.10397 0.37673 1.6106 5.0718 3.3477 10.432 3.5452 10.939 8.5501 21.766 13.139 28.428l3.0176 4.3828v6.9434 6.9414l-6.1094 0.99219c-25.342 4.111-49.344 20.595-60.02 41.223-4.0874 7.8974-13.863 32.299-13.873 34.627h220.27c0.00166-0.08162 0.01563-0.16015 0.01563-0.24219 0-2.054-10.113-27.113-13.877-34.385-10.676-20.628-34.676-37.112-60.018-41.223l-6.1094-0.99219v-7.502c-3.7e-4 -4.1263 0.2248-7.6405 0.5-7.8106 0.27522-0.1701 1.6764-2.0958 3.1152-4.2793 5.0572-7.6744 10.642-20.89 14.471-34.246l1.1387-3.9726h2.4707c3.6647 0 3.9537-1.0466 4.1621-15.043 0.16281-10.921 0.12422-11.426-0.92578-12.016-0.60277-0.33874-1.1574-0.63533-1.2324-0.66016-0.07504-0.024806 0.22953-2.6141 0.67578-5.7539 1.6982-11.948 0.81198-21.068-2.752-28.311-3.2921-6.6901-10.038-12.016-16.535-13.055-2.0738-0.33162-2.4733-0.69594-5.0371-4.5918-3.3603-5.1061-8.6775-10.343-12.438-12.248-5.4063-2.7396-8.9755-3.3547-19.396-3.3457z" fill="#ffb339" stroke-width=".54798"/></svg>
