<svg width="300" height="79.68" version="1.1" viewBox="0 0 300 79.68" xmlns="http://www.w3.org/2000/svg"><g transform="matrix(3 0 0 3 188.29 -726.96)"><path d="m-23.327 243.94v18.412h2.5776v-5.8085l5.0607 5.8085h3.3264l-5.5952-6.2955 5.1082-4.9657h-3.1839l-4.7162 4.6687v-11.82zm57.986 0v18.412h2.5776v-18.412zm-64.721 6.7355c-1.2988 0-2.3439 0.31276-3.1359 0.93839-0.78403 0.62564-1.1765 1.4412-1.1765 2.447 0 0.73651 0.23803 1.3625 0.7132 1.8773 0.48309 0.51477 1.3263 1.0215 2.5301 1.5204 0.21383 0.095 0.51866 0.21381 0.91463 0.35635 1.1721 0.43558 1.758 0.95814 1.758 1.5679 0 0.45934-0.16627 0.82356-0.49889 1.0928-0.3247 0.26134-0.77601 0.39199-1.3541 0.39199-0.67316 0-1.2234-0.14648-1.6511-0.43951-0.42765-0.29302-0.72061-0.72058-0.879-1.2829l-2.1386 1.1641c0.41181 0.84738 0.98239 1.4768 1.711 1.8887s1.6431 0.61817 2.7439 0.61817c1.4334 0 2.5578-0.31721 3.3735-0.95077 0.8157-0.64147 1.224-1.5243 1.224-2.6489 0-0.7761-0.22566-1.4214-0.67707-1.9362-0.44349-0.52269-1.1843-0.98984-2.2217-1.4016-0.22966-0.095-0.5543-0.21825-0.97403-0.36873-1.3305-0.48309-1.9956-1.0175-1.9956-1.6036 0-0.38806 0.14648-0.69685 0.4395-0.92652 0.30094-0.23758 0.69683-0.35635 1.1878-0.35635 0.44349 0 0.83146 0.10689 1.1641 0.32072 0.34054 0.20591 0.57807 0.48699 0.7127 0.84336l1.8298-1.2591c-0.2851-0.59395-0.74087-1.0492-1.3665-1.366-0.61772-0.3247-1.362-0.48702-2.2331-0.48702zm37.241 0c-0.88697 0-1.659 0.18212-2.3163 0.54641-0.64939 0.35638-1.2314 0.92645-1.7461 1.7105v-1.8412h-2.4237v11.261h2.5781v-5.1314c0-1.0216 0.031702-1.7228 0.095009-2.103 0.063307-0.38013 0.17421-0.7008 0.33259-0.96214 0.24551-0.4039 0.57806-0.72061 0.99779-0.95028 0.41973-0.22965 0.88293-0.34447 1.3898-0.34447 0.82362 0 1.4016 0.2692 1.7342 0.80773 0.34054 0.53852 0.51127 1.505 0.51127 2.8988v5.7848h2.6014v-5.1314c0-1.6156 0.21378-2.7444 0.64144-3.3858 0.43557-0.64939 1.16-0.97402 2.1737-0.97402 0.82363 0 1.3942 0.24149 1.711 0.72458 0.3247 0.47517 0.48701 1.4694 0.48701 2.982v5.7848h2.5776v-7.7333c0-0.63356-0.03563-1.1205-0.1069-1.461-0.0634-0.34054-0.16628-0.63349-0.30884-0.879-0.30886-0.52268-0.74038-0.91857-1.2947-1.1878-0.55437-0.27718-1.2041-0.41574-1.9486-0.41574-0.85529 0-1.6194 0.17815-2.2925 0.53452-0.66524 0.35638-1.2947 0.92251-1.8887 1.6986-0.30094-0.75234-0.74037-1.3105-1.3185-1.6748-0.57812-0.37222-1.3071-0.55829-2.1861-0.55829zm19.445 0.0238c-1.7344 0-3.1561 0.57009-4.2648 1.7105-1.1008 1.1325-1.6511 2.5819-1.6511 4.348 0 1.8373 0.53445 3.3061 1.6036 4.4069 1.0691 1.1008 2.5067 1.6516 4.3123 1.6516 1.2592 0 2.3558-0.27761 3.2903-0.83198 0.9345-0.55436 1.7184-1.3976 2.3519-2.5301l-2.1737-1.2116c-0.41181 0.7761-0.8948 1.3383-1.4492 1.6867-0.55437 0.34846-1.2472 0.52265-2.0787 0.52265-0.9345 0-1.6832-0.29296-2.2455-0.879-0.56231-0.59396-0.87506-1.4174-0.9384-2.4707h9.0043v-0.48701c0-1.869-0.50674-3.3224-1.5204-4.3599-1.0137-1.0374-2.427-1.5561-4.2406-1.5561zm-39.152 0.39199 4.1337 10.287-3.0884 6.2723h2.6489l8.1253-16.559h-2.7914l-2.78 6.011-0.05939 0.14254c-0.38805 0.86322-0.63351 1.4927-0.73646 1.8887-0.055435-0.38012-0.13065-0.75227-0.22569-1.1166-0.087117-0.37221-0.19005-0.73642-0.30884-1.0928l-2.0668-5.8328zm39.2 1.7936c0.8949 0 1.5996 0.21378 2.1143 0.64143 0.51477 0.41973 0.82356 1.0334 0.92652 1.8412h-6.1654c0.20591-0.83155 0.56616-1.4531 1.0809-1.8649 0.51476-0.41181 1.1962-0.61767 2.0436-0.61767z" fill="#4e4e4e" stroke-width=".60822"/><path d="m-58.287 242.32c-2.4592 0-4.4767 2.0175-4.4767 4.4767v8.543c0 2.4592 2.0174 4.4762 4.4767 4.4762h8.543c2.4592 0 4.4762-2.0169 4.4762-4.4762v-0.42713h-2.4054v0.42713c0 1.1672-0.9036 2.0688-2.0708 2.0688h-8.543c-1.1672 0-2.0688-0.90161-2.0688-2.0688v-8.543c0-1.1672 0.90161-2.0693 2.0688-2.0693h8.543c1.1672 0 2.0708 0.90211 2.0708 2.0693v0.053c0.34512-0.21156 0.74195-0.32374 1.1468-0.32418 0.45023 1.7e-4 0.88956 0.13855 1.2586 0.39643v-0.12521c0-2.4592-2.0169-4.4767-4.4762-4.4767zm11.761 4.6044a1.7998 1.7998 0 0 0-1.8001 1.8001 1.7998 1.7998 0 0 0 1.8001 1.7996 1.7998 1.7998 0 0 0 1.7996-1.7996 1.7998 1.7998 0 0 0-1.7996-1.8001z" color="#000000" fill="#00b29d" stroke-linecap="round" stroke-linejoin="round" stroke-width=".95775" style="-inkscape-stroke:none;paint-order:fill markers stroke"/><path d="m-43.286 268.88c2.4592 0 4.4767-2.0174 4.4767-4.4766v-8.543c0-2.4592-2.0174-4.4762-4.4767-4.4762h-8.543c-2.4592 0-4.4762 2.0169-4.4762 4.4762v0.42712h2.4054v-0.42712c0-1.1672 0.9036-2.0688 2.0708-2.0688h8.543c1.1672 0 2.0688 0.9016 2.0688 2.0688v8.543c0 1.1672-0.90161 2.0693-2.0688 2.0693h-8.543c-1.1672 0-2.0708-0.9021-2.0708-2.0693v-0.053c-0.34512 0.21156-0.74195 0.32374-1.1468 0.32418-0.45023-1.7e-4 -0.88956-0.13855-1.2586-0.39643v0.12522c0 2.4592 2.0169 4.4766 4.4762 4.4766zm-11.761-4.6044a1.7998 1.7998 0 0 0 1.8001-1.8001 1.7998 1.7998 0 0 0-1.8001-1.7996 1.7998 1.7998 0 0 0-1.7996 1.7996 1.7998 1.7998 0 0 0 1.7996 1.8001z" color="#000000" fill="#ffb339" stroke-linecap="round" stroke-linejoin="round" stroke-width=".95775" style="-inkscape-stroke:none;paint-order:fill markers stroke"/></g></svg>
