<svg width="256" height="256" version="1.1" viewBox="0 0 256 256" xmlns="http://www.w3.org/2000/svg"><path d="m27.756 244.96c-7.4009-1.1131-12.517-3.7323-18.114-9.2734-3.3071-3.2742-4.5051-4.8922-6.1273-8.2751-3.7198-7.7572-3.4963-1.7311-3.506-94.543l-0.0087-83.336 1.2811-4.4318c2.769-9.5794 8.3668-16.357 17.026-20.613 6.3203-3.1069 5.7922-3.0726 47.239-3.0713l37.726 9.99e-4 -34.945 20.959-19.535 0.14648c-18.899 0.1417-19.6 0.18153-21.535 1.223-3.8561 2.0752-5.7512 5.2664-5.7512 9.6844 0 3.8067 2.2365 7.4672 5.7512 9.4128 1.3787 0.76322 9.1601 0.85079 96.02 1.0806 90.752 0.24008 94.619 0.28731 97.02 1.1849 6.3393 2.37 11.356 7.5467 13.247 13.669 0.8904 2.8828 1.0056 4.6469 1.0056 15.405v12.15l-16.628 0.2469c-18.03 0.26773-19.889 0.49518-27.252 3.3345-8.3852 3.2337-17.281 10.258-22.118 17.464-8.4844 12.64-10.666 27.457-6.156 41.818 4.7395 15.093 16.714 26.736 32.505 31.606 4.3612 1.3448 4.5149 1.3555 22.05 1.5372l17.658 0.183-0.15458 13.343-0.15459 13.343-1.601 3.38c-3.171 6.6943-9.1318 11.254-16.153 12.356-3.8108 0.59802-184.82 0.61415-188.79 0.0169zm172.79-59.269c-14.779-3.6241-25.26-17.747-24.342-32.8 0.69965-11.469 7.0819-21.288 17.328-26.659 6.6876-3.5057 7.068-3.5462 33.269-3.5462h23.505l1.8399 1.1441c1.0884 0.67678 2.2683 2.029 2.8887 3.3107 1.0296 2.127 1.0463 2.6422 0.91066 28.201-0.13539 25.522-0.15869 26.062-1.1844 27.446-0.57539 0.77634-1.7902 1.9179-2.6995 2.5368l-1.6533 1.1252-23.556-0.0417c-17.953-0.0317-24.21-0.20209-26.306-0.71617zm12.379-21.689c6.4684-3.317 7.641-12.086 2.2947-17.16-6.6024-6.2663-17.674-1.5077-17.674 7.5962 0 8.2555 8.1039 13.295 15.38 9.5638zm-130.39-111.26c1.4395-1.3419 69.274-41.694 70.64-42.021 1.9649-0.47039 5.1422 0.50423 6.829 2.0948 1.1049 1.0418 24.034 39.608 24.034 40.425 0 0.10107-23.003 0.18376-51.118 0.18376-43.215 0-51.004-0.10554-50.385-0.68263zm110.88-15.518c-4.8822-8.4142-8.8768-15.389-8.8768-15.499 0-0.53969 4.5401 0.92234 7.0982 2.2858 3.7475 1.9974 7.0699 5.5906 9.06 9.7984 1.4756 3.12 1.6027 3.813 1.764 9.6136 0.29294 10.538 0.91259 10.963-9.0454-6.1989z" stroke-width=".5001"/></svg>
